<?xml version="1.0" encoding="utf-8"?><!DOCTYPE svg PUBLIC "-//W3C//DTD SVG 1.1//EN" "http://www.w3.org/Graphics/SVG/1.1/DTD/svg11.dtd"><svg viewBox="0 0 297 297" xmlns="http://www.w3.org/2000/svg" xmlns:xlink="http://www.w3.org/1999/xlink"><style>:root>svg{display:none}:root>svg:target{display:block}</style><svg viewBox="0 0 22 9" id="icon-arrow" xmlns="http://www.w3.org/2000/svg"><defs><style>.acls-1{fill:#fff;fill-rule:evenodd}</style></defs><path class="acls-1" d="M.3 5.472h16.948l-.1 2.857a.292.292 0 000 .41l.172.172a.28.28 0 00.2.086.285.285 0 00.2-.084l4.193-4.211A.292.292 0 0022 4.5a.283.283 0 00-.084-.2L17.723.087a.289.289 0 00-.407 0l-.172.173a.287.287 0 00-.084.2.278.278 0 00.084.2l.113 2.865H.292A.3.3 0 000 3.82v1.37a.292.292 0 00.3.282z"/></svg><svg viewBox="0 0 18.94 16.969" id="icon-cart" xmlns="http://www.w3.org/2000/svg"><defs><style>.bcls-1{fill:#243f4d;fill-rule:evenodd}</style></defs><path class="bcls-1" d="M5.53 16.978a2.074 2.074 0 110-4.147 2.056 2.056 0 011.46.6 2.03 2.03 0 01.61 1.466 2.071 2.071 0 01-2.07 2.081zm0-2.963a.889.889 0 10.34 1.71.9.9 0 00.55-.824.92.92 0 00-.26-.629.9.9 0 00-.63-.257zm8.39 2.963a2.045 2.045 0 01-1.46-.607 2.068 2.068 0 011.46-3.54 1.953 1.953 0 011.47.6 2.085 2.085 0 01-.67 3.383 2.093 2.093 0 01-.8.164zm0-2.963a.978.978 0 00-.82.548.887.887 0 001.16 1.161.891.891 0 00.29-1.452.9.9 0 00-.63-.257zm-11.27.164a.562.562 0 01-.25-.056.59.59 0 01-.29-.787 3.686 3.686 0 013.05-2.151L4.11 5.794a.591.591 0 111.16-.228l1.09 5.578h9.43l1.8-6.771H4.29A4.346 4.346 0 01.01.68.587.587 0 01.5.007a.6.6 0 01.68.5 3.159 3.159 0 003.11 2.682h14.07a.582.582 0 01.47.232.594.594 0 01.11.513l-2.13 7.956a.59.59 0 01-.57.44H5.88a.03.03 0 00-.02 0 2.66 2.66 0 00-2.68 1.51.586.586 0 01-.53.338z"/></svg><svg viewBox="0 0 20.03 20.031" id="icon-dots" xmlns="http://www.w3.org/2000/svg"><defs><style>.ccls-1{fill:#fff;fill-rule:evenodd}</style></defs><path class="ccls-1" d="M2.15 4.287a2.146 2.146 0 112.14-2.145 2.145 2.145 0 01-2.14 2.145zm0 7.869a2.146 2.146 0 112.14-2.147 2.146 2.146 0 01-2.14 2.147zm0 7.868a2.146 2.146 0 112.14-2.146 2.145 2.145 0 01-2.14 2.146zm7.86-15.737a2.146 2.146 0 112.15-2.145 2.143 2.143 0 01-2.15 2.145zm0 7.869a2.146 2.146 0 112.15-2.147 2.144 2.144 0 01-2.15 2.147zm0 7.868a2.146 2.146 0 112.15-2.146 2.143 2.143 0 01-2.15 2.146zm7.87-15.737a2.146 2.146 0 112.15-2.145 2.143 2.143 0 01-2.15 2.145zm0 7.869a2.146 2.146 0 112.15-2.147 2.144 2.144 0 01-2.15 2.147zm0 7.868a2.146 2.146 0 112.15-2.146 2.143 2.143 0 01-2.15 2.146z"/></svg><svg viewBox="0 0 297 297" id="icon-heart" xmlns="http://www.w3.org/2000/svg"><path d="M148.5 273.96c-1.572 0-3.145-.36-4.589-1.083-1.455-.728-36.028-18.149-71.1-47.375-20.824-17.353-37.475-35.289-49.488-53.31C7.847 148.979 0 125.504 0 102.421 0 58.65 35.61 23.04 79.381 23.04c29.604 0 55.474 16.286 69.119 40.372 13.645-24.086 39.516-40.372 69.119-40.372 43.77 0 79.381 35.61 79.381 79.381 0 23.083-7.847 46.558-23.323 69.771-12.014 18.021-28.664 35.957-49.488 53.311-35.071 29.226-69.645 46.647-71.1 47.374a10.246 10.246 0 01-4.589 1.083zM79.381 43.564c-32.453 0-58.856 26.403-58.856 58.856 0 75.731 104.584 136.931 127.972 149.665 23.379-12.75 127.979-74.044 127.979-149.665 0-32.453-26.403-58.856-58.856-58.856-32.454 0-58.856 26.403-58.856 58.856 0 5.667-4.596 10.263-10.263 10.263s-10.263-4.596-10.263-10.263c-.001-32.452-26.403-58.856-58.857-58.856z"/></svg><svg viewBox="0 0 15.28 15.281" id="icon-search" xmlns="http://www.w3.org/2000/svg"><defs><style>.ecls-1{fill:#243f4d;fill-rule:evenodd}</style></defs><path id="eicon" class="ecls-1" d="M1547.7 72.076a.617.617 0 01.75.485 2.583 2.583 0 00.78 1.489 3.036 3.036 0 001.49.777.636.636 0 01.49.743.649.649 0 01-.72.515 4.21 4.21 0 01-2.14-1.13 4.164 4.164 0 01-1.13-2.136.6.6 0 01.48-.743zm3.28-6.076a6.267 6.267 0 016.28 6.257 6.136 6.136 0 01-.57 2.6l2.34 2.036c1.7 1.746.74 3.266.29 3.717-.42.454-1.99 1.414-3.73-.292l-2.06-2.35A6.261 6.261 0 111550.98 66zm5.55 13.517a1.352 1.352 0 001.88.226 1.313 1.313 0 00-.23-1.874l-2.16-1.88a6.236 6.236 0 01-1.37 1.34zm-5.55-2.312a4.948 4.948 0 10-4.97-4.948 4.963 4.963 0 004.97 4.943z" transform="translate(-1544.72 -66)"/></svg></svg>